<svg width="47" height="50" viewBox="0 0 47 50" fill="none" xmlns="http://www.w3.org/2000/svg">
<path d="M23 19.5C27.3821 19.5 31.3299 20.0554 34.165 20.9414C35.5854 21.3853 36.6982 21.904 37.4453 22.4561C38.2023 23.0154 38.5 23.5428 38.5 24C38.5 24.4572 38.2023 24.9846 37.4453 25.5439C36.6982 26.096 35.5854 26.6147 34.165 27.0586C31.3299 27.9446 27.3821 28.5 23 28.5C18.6179 28.5 14.6701 27.9446 11.835 27.0586C10.4146 26.6147 9.30185 26.096 8.55469 25.5439C7.79768 24.9846 7.5 24.4572 7.5 24C7.5 23.5428 7.79768 23.0154 8.55469 22.4561C9.30185 21.904 10.4146 21.3853 11.835 20.9414C14.6701 20.0554 18.6179 19.5 23 19.5Z" stroke="black"/>
<path d="M7.08789 23C7.39951 23.1612 7.71972 23.3176 8.04785 23.4697C8.01636 23.8529 8 24.2405 8 24.6318V34.6318C8 42.3638 14.268 48.6318 22 48.6318H24C31.732 48.6318 38 42.3638 38 34.6318V24.6318C38 24.5163 37.9979 24.401 37.9951 24.2861C38.3305 24.1605 38.6594 24.0307 38.9814 23.8965C38.9932 24.1401 39 24.3853 39 24.6318V34.6318C39 42.9161 32.2843 49.6318 24 49.6318H22C13.7157 49.6318 7 42.9161 7 34.6318V24.6318C7 24.0804 7.0299 23.536 7.08789 23Z" fill="black"/>
<path d="M30 34.6319C25.6 31.8319 14.1667 35.7985 9 38.1319L8 38.6318C8.5 40.7985 10.6 45.6318 15 47.6318C19.4 49.6318 25.5 49.1318 28 48.6318C30.3333 48.2985 35.5 45.9318 37.5 39.1318C18.5 41.6318 28 38.1319 25 37.6318C22 37.1318 33.5 33.6318 30 34.6319Z" stroke="black"/>
<path d="M21.1055 17.4753C20.7355 16.5052 19.9228 15.5594 18.6562 14.7498C16.8674 13.6063 14.3705 12.8627 11.6367 12.6882C8.90522 12.5139 6.16815 12.9227 3.9541 13.824C2.95565 14.2304 2.24097 15.0607 1.69043 16.033C1.42933 16.4941 1.21488 16.9701 1.02637 17.4294C1.58274 17.1811 2.25812 16.9229 2.94434 16.6804C3.71441 16.4083 4.51151 16.1469 5.18652 15.9246C5.87161 15.6989 6.41256 15.5195 6.69629 15.4041C7.98926 14.8777 9.55676 14.6481 11.1035 14.7468C11.4637 14.7698 11.8597 14.7806 12.2803 14.7937C12.6964 14.8067 13.1336 14.8222 13.5576 14.8552C14.3797 14.9192 15.2557 15.0546 15.8682 15.446C16.0595 15.5684 16.5144 15.7521 17.1631 15.9861C17.4758 16.0989 17.8182 16.218 18.1748 16.3425C18.5304 16.4667 18.8998 16.5963 19.2617 16.7273C19.9277 16.9684 20.5859 17.2251 21.1055 17.4753Z" stroke="black"/>
<path d="M22.3936 18.0597C22.8042 17.0385 22.7322 15.796 22.0877 14.4326C21.2081 12.572 19.3517 10.6823 16.8502 9.14254C14.3506 7.60406 11.4142 6.54312 8.61632 6.15553C7.34365 5.97933 6.03315 6.30354 4.78131 6.82634C4.14293 7.09296 3.54277 7.40025 2.98803 7.70478C3.72934 7.78145 4.61331 7.92091 5.49847 8.07957C6.43836 8.24805 7.39656 8.43918 8.20911 8.60031C9.03268 8.76363 9.68645 8.89194 10.0459 8.94177C11.6688 9.16659 13.3382 9.77503 14.7476 10.6426C15.0772 10.8454 15.4501 11.0563 15.844 11.2813C16.2342 11.5041 16.6426 11.7392 17.0249 11.982C17.7681 12.4541 18.5029 13.0081 18.7988 13.6339C18.8947 13.8368 19.1994 14.2231 19.6491 14.7453C19.8667 14.9979 20.1082 15.2713 20.3591 15.5557C20.6093 15.8393 20.8694 16.1334 21.1204 16.4255C21.6097 16.9953 22.0782 17.5725 22.3936 18.0597Z" stroke="black"/>
<path d="M22.7072 17.68C21.9851 16.7382 21.6917 15.4974 21.9252 14.0521C22.2415 12.0943 23.497 9.94274 25.4795 8.02011C27.4609 6.09858 30.0038 4.56629 32.6071 3.71063C33.7827 3.32423 35.1525 3.40983 36.5369 3.7066C37.2563 3.86083 37.9492 4.06512 38.5933 4.27218C37.9028 4.47437 37.1011 4.75517 36.3054 5.05429C35.4372 5.38065 34.5577 5.73254 33.8127 6.02939C33.0561 6.33083 32.459 6.56706 32.126 6.67652C30.5978 7.17878 29.1359 8.06558 28.0051 9.16223C27.7439 9.41553 27.4427 9.68431 27.1233 9.97199C26.8077 10.2563 26.4772 10.557 26.1736 10.861C25.584 11.4513 25.0174 12.1279 24.9087 12.8004C24.8749 13.0099 24.6937 13.4342 24.4064 14.0216C24.2678 14.3048 24.1112 14.6119 23.9491 14.9323C23.7875 15.2518 23.62 15.5846 23.4599 15.913C23.1578 16.533 22.8763 17.158 22.7072 17.68Z" stroke="black"/>
<path d="M23.6852 17.3937C23.8642 16.3836 24.5173 15.3345 25.6852 14.3588C27.3214 12.9917 29.7829 11.9278 32.6099 11.3965C35.4344 10.8657 38.3873 10.9116 40.8958 11.513C42.0347 11.7861 42.9572 12.5169 43.7335 13.4026C44.107 13.8287 44.4341 14.2761 44.7296 14.7098C44.087 14.5322 43.3064 14.3613 42.5159 14.2073C41.6547 14.0396 40.7667 13.8867 40.0146 13.7556C39.2521 13.6227 38.6476 13.5158 38.3254 13.4385C36.8715 13.09 35.1933 13.0683 33.6038 13.3669C33.2312 13.437 32.8184 13.5001 32.3821 13.568C31.95 13.6353 31.4974 13.7073 31.0624 13.7951C30.2175 13.9657 29.3393 14.2118 28.788 14.6724C28.6102 14.8209 28.1691 15.0643 27.5409 15.3798C27.2373 15.5322 26.9037 15.6944 26.557 15.8639C26.2113 16.033 25.8529 16.2088 25.5024 16.3854C24.8351 16.7213 24.1805 17.0708 23.6852 17.3937Z" stroke="black"/>
<path d="M21.6078 18C20.3945 19.869 18.6959 24.635 21.6078 28.7468" stroke="black"/>
<path d="M23.6078 18C22.3945 19.869 20.6959 24.635 23.6078 28.7468" stroke="#070400"/>
<path d="M38.3281 26.9668C39.4669 27.1444 40.8636 27.4456 42.0117 27.9082C43.2384 28.3868 44.9182 28.4811 45.6494 29.3281C46.3805 30.1754 46.0966 32.1129 46.2578 33.0566C46.353 34.2163 46.1265 35.1422 46.2041 36.0889C46.0996 37.1092 45.7716 38.0853 45.2393 38.96C44.7069 39.8346 43.9806 40.5917 43.1016 41.1875C42.2224 41.7834 41.2073 42.2063 40.1152 42.4326C39.0232 42.6589 37.875 42.6835 36.7363 42.5059L36.8301 41.5869C37.834 41.7435 38.8467 41.722 39.8096 41.5225C40.7725 41.3229 41.6672 40.9492 42.4424 40.4238C43.2175 39.8984 43.8587 39.2312 44.3281 38.46C44.7974 37.6889 45.2866 36.7334 45.3789 35.834C45.4711 34.9343 45.6059 34.4439 45.5107 33.2842C45.4346 32.3564 45.4631 30.7655 44.8184 30.0186C44.1735 29.2716 42.6984 29.0793 41.6387 28.6094C40.668 28.179 39.2384 28.0424 38.2344 27.8857L38.3281 26.9668ZM38.1963 28.6221C39.1183 28.7659 40.2493 29.007 41.1797 29.374C42.1737 29.754 43.5329 29.8354 44.127 30.502C44.7209 31.1685 44.4969 32.6849 44.6299 33.4248C44.71 34.3335 44.5293 35.0579 44.5947 35.7998C44.5129 36.5985 44.2497 37.3611 43.8213 38.0439C43.3928 38.7268 42.8075 39.3172 42.0977 39.7803C41.3878 40.2434 40.5677 40.5704 39.6846 40.7432C38.8014 40.916 37.8722 40.9309 36.9502 40.7871L37.0234 40.0674C37.8364 40.1942 38.6559 40.1806 39.4346 40.0283C40.2133 39.876 40.9366 39.588 41.5625 39.1797C42.1882 38.7715 42.7043 38.2513 43.082 37.6494C43.4598 37.0473 43.8536 36.3 43.9258 35.5957C43.9979 34.8916 44.1065 34.5083 44.0264 33.5996C43.9622 32.8726 43.9799 31.6267 43.4561 31.0391C42.9321 30.4516 41.7386 30.2942 40.8799 29.9219C40.0933 29.5808 38.936 29.4686 38.123 29.3418L38.1963 28.6221Z" fill="black"/>
</svg>
