<svg width="48" height="48" viewBox="0 0 48 48" fill="none" xmlns="http://www.w3.org/2000/svg">
<path d="M21.8391 18.6902C21.8391 17.081 20.8017 15.5282 18.9254 14.3288C17.0491 13.1294 14.4655 12.3676 11.6687 12.1891C8.87187 12.0105 6.05811 12.4278 3.76547 13.361C1.47284 14.2943 0.620581 17.1206 0 18.6902C0.328749 17.8587 5.67068 16.3615 6.88519 15.8671C8.0997 15.3727 9.59027 15.1517 11.0719 15.2463C12.5535 15.3408 14.6054 15.2317 15.5993 15.8671C16.5933 16.5025 21.8391 17.8377 21.8391 18.6902Z" fill="#448244"/>
<path d="M22.1944 19.3245C23.3798 17.9994 23.527 16.1918 22.6079 14.2476C21.6888 12.3033 19.7678 10.3588 17.2124 8.78587C14.6569 7.21295 11.6464 6.12201 8.75635 5.72166C5.86634 5.32132 2.9657 7.21418 1.21329 8.19035C2.14162 7.67323 8.37655 9.1638 9.90752 9.37588C11.4385 9.58795 13.0333 10.1659 14.3871 10.9991C15.7408 11.8324 17.7924 12.7886 18.2793 13.8186C18.7662 14.8486 22.8224 18.6225 22.1944 19.3245Z" fill="#1C711C"/>
<path d="M23.2456 18.8853C21.7057 17.7977 21.0377 16.0612 21.3695 14.0079C21.7013 11.9546 23.0094 9.7286 25.0439 7.75559C27.0783 5.78257 29.6962 4.201 32.397 3.31332C35.0977 2.42564 38.4742 3.77133 40.4655 4.42117C39.4107 4.07692 33.7659 6.60302 32.3352 7.07326C30.9045 7.54351 29.5176 8.38133 28.4399 9.42653C27.3622 10.4717 25.6399 11.757 25.4641 12.8447C25.2884 13.9324 22.4298 18.3091 23.2456 18.8853Z" fill="#073607"/>
<path d="M23.2023 18.6605C22.8669 17.0721 23.6274 15.4037 25.3383 13.9742C27.0492 12.5448 29.5905 11.4547 32.4761 10.9124C35.3617 10.3701 38.3892 10.4136 40.9796 11.0346C43.57 11.6557 45.0497 14.3338 46.0253 15.8019C45.5085 15.0242 39.6138 14.2456 38.2416 13.9166C36.8693 13.5876 35.2655 13.5645 33.7369 13.8518C32.2082 14.1391 30.0412 14.3 29.1348 15.0572C28.2285 15.8145 23.0246 17.819 23.2023 18.6605Z" fill="#035903"/>
<path d="M22.7027 17.9893C21.4894 19.8583 19.7908 24.6243 22.7027 28.7361" stroke="#8E4C0A" stroke-width="2"/>
<path d="M39.0715 30.0036C40.0872 29.8968 41.1212 29.9964 42.1018 30.2955C43.0823 30.5946 43.9859 31.0859 44.7496 31.7354C45.5133 32.3849 46.1188 33.1769 46.5241 34.0564C46.9294 34.9359 47.1247 35.8817 47.0964 36.8281C47.0681 37.7746 46.8169 38.6989 46.3603 39.5368C45.9037 40.3747 45.2526 41.1061 44.4523 41.6802C43.652 42.2543 42.7217 42.6572 41.7261 42.861C40.7306 43.0648 39.6936 43.0645 38.6872 42.8603L38.9433 41.6534C39.759 41.8189 40.5996 41.8191 41.4066 41.654C42.2137 41.4888 42.9677 41.1621 43.6165 40.6968C44.2652 40.2315 44.7929 39.6386 45.1631 38.9593C45.5332 38.2801 45.7368 37.5309 45.7598 36.7637C45.7827 35.9965 45.6244 35.2298 45.2959 34.5169C44.9674 33.804 44.4765 33.162 43.8574 32.6355C43.2384 32.109 42.5059 31.7107 41.7111 31.4683C40.9163 31.2259 40.0781 31.1451 39.2548 31.2317L39.0715 30.0036Z" fill="#056B2C"/>
<path d="M16.7365 28.9268C16.7365 27.8223 17.6319 26.9268 18.7365 26.9268H38.4465C39.5511 26.9268 40.4465 27.8223 40.4465 28.9268V41C40.4465 44.866 37.3125 48 33.4465 48H23.7365C19.8705 48 16.7365 44.866 16.7365 41V28.9268Z" fill="#33A960"/>
</svg>
