<svg width="51" height="49" viewBox="0 0 51 49" fill="none" xmlns="http://www.w3.org/2000/svg">
<path d="M17.8911 45.2181C20.9681 45.0469 24.2358 45.2809 26.5229 46.5179C28.5623 47.6208 31.1513 47.8669 33.605 47.6996C36.051 47.5327 38.3003 46.9599 39.6099 46.4877L39.7788 46.9584L39.9487 47.4281C38.5596 47.929 36.2198 48.5239 33.6733 48.6976C31.1348 48.8708 28.3258 48.63 26.0474 47.3978C24.0167 46.2995 20.9867 46.047 17.9468 46.2162C14.9281 46.3843 11.9939 46.962 10.2231 47.4408L10.0923 46.9584L9.96143 46.475C11.7892 45.9807 14.793 45.3906 17.8911 45.2181ZM10.0366 38.5033C13.9565 38.246 18.1337 38.6024 21.147 40.4359C23.9054 42.1144 27.0866 42.4766 29.9741 42.2269C32.8625 41.9771 35.4128 41.1183 36.8608 40.4135L36.9028 40.3929L36.9487 40.3812C38.3446 40.0037 40.6087 39.6656 42.9038 39.8724C45.1915 40.0787 47.5993 40.8356 49.1606 42.7357L48.7739 43.0531L48.3882 43.3705C47.0708 41.7674 44.9792 41.0637 42.814 40.8685C40.6772 40.676 38.5536 40.9881 37.2476 41.3363C35.69 42.0859 33.0472 42.9647 30.061 43.223C27.0414 43.4841 23.6251 43.1151 20.6265 41.2904C17.8825 39.6209 13.9632 39.2479 10.1021 39.5013C6.25842 39.7537 2.56548 40.6203 0.350098 41.3392L0.0415039 40.3881C2.32402 39.6473 6.0989 38.7619 10.0366 38.5033ZM22.2632 29.9261C24.6432 29.9076 26.7863 30.2553 28.3433 31.2025C29.241 31.7488 29.8376 32.1828 30.147 32.5365C30.2919 32.7023 30.4596 32.9466 30.4487 33.2416C30.4352 33.6001 30.1804 33.8007 29.9868 33.8939C29.7983 33.9846 29.5703 34.0289 29.354 34.0541C29.1282 34.0804 28.8683 34.0909 28.5933 34.0931C28.0455 34.0975 27.3824 34.0678 26.7173 34.0453C26.0433 34.0225 25.3568 34.0064 24.731 34.0326C24.0979 34.0591 23.5653 34.1281 23.1851 34.2582C22.7962 34.3913 22.6918 34.5417 22.6665 34.6488C22.6334 34.7894 22.6658 35.1125 23.0942 35.7211C23.7157 36.6034 24.766 37.176 26.146 37.4857C27.5241 37.7949 29.178 37.8287 30.9204 37.682C34.4035 37.3886 38.1383 36.3803 40.5103 35.5385L40.5493 35.5248L40.5894 35.517C41.9668 35.2686 44.124 35.0447 46.1323 35.182C47.136 35.2507 48.1261 35.4112 48.9702 35.7172C49.8102 36.0217 50.5575 36.4895 50.9995 37.2064L50.1479 37.7318C49.8703 37.2815 49.3574 36.9216 48.6294 36.6576C47.9051 36.3951 47.0164 36.2452 46.064 36.1801C44.1765 36.051 42.1249 36.2589 40.8022 36.4945C38.3745 37.3525 34.5768 38.3782 31.0044 38.6791C29.2085 38.8303 27.4427 38.8013 25.9272 38.4613C24.4139 38.1217 23.0947 37.4584 22.2769 36.2972C21.8066 35.6294 21.5574 34.9942 21.6929 34.4193C21.8363 33.8112 22.3508 33.4876 22.8608 33.3129C23.3801 33.1351 24.0291 33.0612 24.689 33.0336C25.356 33.0056 26.0754 33.0234 26.7505 33.0463C27.4344 33.0694 28.0651 33.0973 28.5854 33.0931C28.8442 33.0911 29.0631 33.0812 29.2378 33.0609C29.244 33.0602 29.2503 33.0578 29.2563 33.057C29.0089 32.8303 28.5591 32.5045 27.8237 32.057C26.5021 31.2529 24.5814 30.9082 22.271 30.9261C19.9723 30.9441 17.3488 31.3199 14.6724 31.8998C9.32034 33.0594 3.81853 35.0193 0.391113 36.4701L0.195801 36.0092L0.000488281 35.5492C3.46986 34.0806 9.0336 32.0982 14.4614 30.9222C17.1748 30.3344 19.871 29.9448 22.2632 29.9261ZM42.6675 19.9525H42.6235C42.6938 20.1707 42.7319 20.3953 42.7319 20.6254L42.7231 20.8129C42.5546 22.7411 39.8034 24.2748 36.4341 24.2748L36.1108 24.2699C32.8906 24.1754 30.308 22.6791 30.145 20.8129L30.1372 20.6254C30.1372 18.61 32.9564 16.9761 36.4341 16.976C38.6147 16.976 40.5371 17.6181 41.6675 18.5941V9.30212L21.0308 14.8705V24.8646C21.1206 25.1101 21.1685 25.3644 21.1685 25.6254L21.1597 25.8129C20.9912 27.7411 18.2399 29.2748 14.8706 29.2748L14.5474 29.2699C11.3271 29.1754 8.74456 27.679 8.58154 25.8129L8.57373 25.6254C8.57373 23.61 11.393 21.9761 14.8706 21.976C17.0052 21.976 18.8917 22.5921 20.0308 23.5336V6.81482H20.0786L20.0737 6.8031L41.6675 0.975952H42.6675V19.9525ZM14.8706 22.976C13.2761 22.976 11.8811 23.3523 10.9194 23.9095C9.93205 24.4818 9.57373 25.1243 9.57373 25.6254C9.57377 26.1264 9.93228 26.768 10.9194 27.3402C11.8811 27.8975 13.276 28.2747 14.8706 28.2748C16.4653 28.2748 17.861 27.8975 18.8228 27.3402C19.7037 26.8296 20.0832 26.2634 20.1548 25.7914H20.0308V25.0697C19.8485 24.6929 19.472 24.2858 18.8228 23.9095C17.861 23.3522 16.4653 22.976 14.8706 22.976ZM36.4341 17.976C34.8395 17.976 33.4446 18.3523 32.4829 18.9095C31.4955 19.4818 31.1372 20.1243 31.1372 20.6254C31.1372 21.1264 31.4957 21.768 32.4829 22.3402C33.4446 22.8975 34.8395 23.2747 36.4341 23.2748C38.0288 23.2748 39.4245 22.8975 40.3862 22.3402C41.3733 21.7681 41.7319 21.1264 41.7319 20.6254C41.7319 20.1243 41.3736 19.4818 40.3862 18.9095C39.4245 18.3522 38.0288 17.976 36.4341 17.976ZM21.0308 7.57166V13.8431L41.6675 8.27478V2.0033L21.0308 7.57166Z" fill="black"/>
</svg>
