<svg width="48" height="48" viewBox="0 0 48 48" fill="none" xmlns="http://www.w3.org/2000/svg">
<path d="M12.5732 41.959C17.3949 41.7507 22.5245 42.0339 26.1279 43.5459C29.3119 44.8819 33.3704 45.1835 37.2256 44.9795C41.0636 44.7763 44.5899 44.0785 46.6406 43.5049L46.9092 44.4678L47.1787 45.4307C44.9957 46.0413 41.3247 46.7652 37.3311 46.9766C33.354 47.187 28.9444 46.896 25.3545 45.3896C22.1841 44.0593 17.4347 43.7508 12.6602 43.957C7.92352 44.1616 3.32027 44.8638 0.543945 45.4463L0.133789 43.4893C3.00231 42.8874 7.71382 42.1689 12.5732 41.959ZM9.56445 33.6064C13.299 33.334 17.3921 33.6991 20.3857 35.7227C22.8468 37.3863 25.6987 37.7556 28.3291 37.5029C30.9657 37.2496 33.2943 36.3777 34.5996 35.6719L34.6904 35.623L34.7881 35.5938C36.1602 35.1815 38.3691 34.8157 40.6191 35.041C42.8664 35.2661 45.3056 36.1015 46.8936 38.248L46.0898 38.8428L45.2861 39.4365C44.1629 37.9184 42.3659 37.2262 40.4199 37.0312C38.5198 36.841 36.6201 37.1444 35.4434 37.4863C33.9118 38.2946 31.3794 39.2194 28.5205 39.4941C25.5876 39.7759 22.2267 39.3815 19.2656 37.3799C16.837 35.7383 13.3037 35.3394 9.70996 35.6016C6.1502 35.8613 2.72369 36.7545 0.677734 37.4922L0.338867 36.5518L0 35.6104C2.19017 34.8207 5.79597 33.8814 9.56445 33.6064ZM39.5088 19.8555H39.4336C39.4996 20.0835 39.5351 20.3183 39.5352 20.5586C39.5352 22.6674 36.8799 24.377 33.6045 24.377C30.3292 24.3768 27.6738 22.6673 27.6738 20.5586C27.6742 18.4501 30.3295 16.7413 33.6045 16.7412C35.6428 16.7412 37.4413 17.4028 38.5088 18.4111V8.67773L19.1748 14.4873V25.0488C19.2482 25.2887 19.2871 25.5364 19.2871 25.79C19.2871 27.8988 16.6319 29.6084 13.3564 29.6084C10.0811 29.6083 7.42578 27.8988 7.42578 25.79C7.42617 23.6815 10.0813 21.9727 13.3564 21.9727C15.3414 21.9727 17.0983 22.6004 18.1748 23.5645V6.10938H18.1758L38.5088 0H39.5088V19.8555ZM19.1748 6.85059V13.4453L38.5088 7.63672V1.04102L19.1748 6.85059Z" fill="#5423E8"/>
</svg>
