<svg width="34" height="34" viewBox="0 0 34 34" fill="none" xmlns="http://www.w3.org/2000/svg">
<path d="M24.9937 10.7353C26.0093 10.6285 27.0434 10.7281 28.0239 11.0272C29.0045 11.3263 29.908 11.8176 30.6717 12.4671C31.4355 13.1166 32.041 13.9086 32.4463 14.7881C32.8516 15.6676 33.0468 16.6134 33.0185 17.5598C32.9903 18.5063 32.7391 19.4306 32.2825 20.2685C31.8258 21.1064 31.1748 21.8378 30.3745 22.4119C29.5742 22.986 28.6439 23.3889 27.6483 23.5927C26.6527 23.7965 25.6157 23.7962 24.6094 23.592L24.8655 22.3851C25.6812 22.5506 26.5218 22.5509 27.3288 22.3857C28.1358 22.2205 28.8899 21.8938 29.5386 21.4285C30.1874 20.9632 30.7151 20.3703 31.0853 19.691C31.4554 19.0118 31.659 18.2626 31.6819 17.4954C31.7049 16.7282 31.5466 15.9615 31.2181 15.2486C30.8895 14.5357 30.3987 13.8937 29.7796 13.3672C29.1605 12.8407 28.4281 12.4424 27.6333 12.2C26.8384 11.9576 26.0002 11.8768 25.177 11.9634L24.9937 10.7353Z" fill="#A7866E"/>
<path d="M26 20.5C25.9998 27.4033 20.4033 32.9998 13.5 33H12.5C5.59658 33 0.000230729 27.4034 0 20.5V5H0.24707C1.42562 8.93946 6.68721 11.9102 13 11.9102C19.3126 11.9101 24.5733 8.93933 25.752 5H26V20.5Z" fill="#E8B895"/>
<path d="M25.5 23.5C13.7745 28.2826 4.74837 25.8913 0.5 23.5C1.51961 31.6304 10 33.5 13.5 33.5C16.5 33.5 23.4608 32.1087 25.5 23.5Z" fill="#C48050"/>
<circle cx="13.5" cy="20.5" r="6.5" fill="#D39C45"/>
<path d="M13 29H3C3 28.5 2 29.5 0.5 23.5C10 28 21.0738 25.5 25.5 23.5C25.3333 24 25.2 25 24 27C23 30 5.5 26 9.5 27C12.7 27.8 13.1667 28.6667 13 29Z" fill="#8D391B"/>
<ellipse cx="13" cy="6" rx="13" ry="6" fill="#8D391B"/>
</svg>
