<svg width="46" height="48" viewBox="0 0 46 48" fill="none" xmlns="http://www.w3.org/2000/svg">
<path d="M34.9365 19.8788C35.2127 19.8788 35.4365 20.1026 35.4365 20.3788V43.9999C35.4365 45.9329 33.8695 47.4999 31.9365 47.4999H4C2.067 47.4999 0.5 45.9329 0.5 43.9999V19.8788H34.9365Z" stroke="#0D0D0D"/>
<path d="M9.5 0.5H26.4365C31.4071 0.5 35.4365 4.52944 35.4365 9.5V19.9434H0.5V9.5C0.5 4.52944 4.52944 0.5 9.5 0.5Z" stroke="#0D0D0D"/>
<path d="M17.5 8.33691H19.3057C24.2762 8.337 28.3057 12.3664 28.3057 17.3369V19.6035H8.5V17.3369C8.5 12.5216 12.2817 8.58956 17.0371 8.34863L17.5 8.33691Z" stroke="#0D0D0D"/>
<line x1="11.3486" y1="27.0563" x2="26.4799" y2="27.0563" stroke="#0D0D0D"/>
<line x1="13.2402" y1="33.1896" x2="24.5887" y2="33.1896" stroke="#0D0D0D"/>
<path d="M35 21.1816C36.3936 21.1577 38.1146 21.2161 39.5615 21.4902C41.105 21.7666 43.1352 21.5552 44.1387 22.3105C45.1421 23.0662 45.0886 25.1571 45.4219 26.1201C45.7078 27.3224 45.5723 28.3387 45.8057 29.3203C45.8311 30.4127 45.5819 31.4991 45.0723 32.5175C44.5625 33.5361 43.8024 34.4673 42.835 35.2568C41.8675 36.0463 40.7114 36.6789 39.4336 37.1191C38.1559 37.5592 36.7812 37.7983 35.3877 37.8222L35.3652 36.8379C36.5938 36.8167 37.8061 36.6068 38.9326 36.2187C40.0591 35.8306 41.0777 35.2721 41.9307 34.5761C42.7837 33.88 43.4548 33.0592 43.9043 32.1611C44.3537 31.2631 44.7997 30.1673 44.7773 29.2041C44.7549 28.2408 44.8444 27.7001 44.5586 26.498C44.3299 25.5362 44.1279 23.8577 43.2432 23.1914C42.3584 22.5252 40.5596 22.595 39.2178 22.2968C37.9885 22.0238 36.2512 22.1449 35.0225 22.166L35 21.1816ZM35.0869 22.9472C36.2153 22.9279 37.6089 22.9726 38.7803 23.1865C40.03 23.4022 41.6744 23.236 42.4863 23.8271C43.2979 24.4184 43.2533 26.055 43.5225 26.8086C43.7532 27.7496 43.6427 28.5452 43.8311 29.3134C43.851 30.1688 43.6487 31.0197 43.2354 31.8174C42.822 32.6149 42.2055 33.3434 41.4219 33.9619C40.6381 34.5804 39.7018 35.0766 38.667 35.4218C37.6322 35.767 36.5189 35.9542 35.3906 35.9736L35.373 35.2041C36.3678 35.187 37.3494 35.0211 38.2617 34.7168C39.1741 34.4124 39.9994 33.975 40.6904 33.4297C41.3815 32.8843 41.9246 32.2413 42.2891 31.5381C42.6535 30.8348 43.0166 29.9767 42.999 29.2226C42.9815 28.4686 43.0539 28.0454 42.8232 27.1045C42.6387 26.3517 42.4764 25.0379 41.7607 24.5166C41.0448 23.9954 39.5873 24.0511 38.501 23.8183C37.5059 23.6052 36.0993 23.7007 35.1045 23.7177L35.0869 22.9472Z" fill="black"/>
</svg>
