<svg width="49" height="48" viewBox="0 0 49 48" fill="none" xmlns="http://www.w3.org/2000/svg">
<path d="M27 34.7759C30.5 34.2033 38.9 32.371 44.5 29.6225C51.5 26.1868 36.625 38.2116 48 35.6348" stroke="black"/>
<path d="M1 42.8926C3.66667 41.7562 10.8 39.9948 18 42.0403C27 44.5972 32 42.8927 33 41.1881C34 39.4834 39 39.4833 45 42.0403" stroke="black"/>
<path d="M1 46.8926C3.66667 45.7562 10.8 43.9948 18 46.0403C27 48.5972 32 46.8927 33 45.1881C34 43.4834 39 43.4833 45 46.0403" stroke="black"/>
<path d="M4.54387 38.0825C7.25185 33.9008 14.5485 26.5988 22.0713 30.8448C31.4748 36.1523 16.3223 31.0926 18.5 33.5" stroke="black"/>
<path d="M22.9639 0C30.6756 0.000128218 36.9276 6.42678 36.9277 14.3545C36.9277 18.004 35.6011 21.3344 33.4189 23.8672L24.707 39.3809C23.9427 40.7416 21.984 40.7417 21.2197 39.3809L17.4424 32.6562L17.6387 32.9844L18.4893 32.4766L22.0918 38.8916C22.4739 39.5714 23.4526 39.5715 23.835 38.8916L32.5469 23.3779L32.5957 23.29L32.6611 23.2148C34.6911 20.8587 35.9277 17.758 35.9277 14.3545C35.9276 7.0684 30.278 1.18584 23.2969 1.00391L22.9639 1C15.9416 1 10.1822 6.76831 10.0039 14.0088L10 14.3545C10 17.5441 11.0848 20.4678 12.8916 22.7617L13.2627 23.2119L13.3281 23.2871L13.377 23.375L16.7754 29.4268L15.917 29.9395L12.5049 23.8643C10.3245 21.3319 9 18.0023 9 14.3545C9.00011 6.42671 15.252 0 22.9639 0ZM22.9639 7.47461C26.7006 7.47476 29.6835 10.5813 29.6836 14.3545C29.6836 18.0101 26.884 21.0399 23.3115 21.2256L22.9639 21.2344C19.2269 21.2344 16.2441 18.1279 16.2441 14.3545C16.2443 10.5813 19.2269 7.47461 22.9639 7.47461ZM22.9639 8.47461C19.8051 8.47461 17.2443 11.1073 17.2441 14.3545C17.2441 17.6018 19.805 20.2344 22.9639 20.2344C26.1226 20.2342 28.6836 17.6017 28.6836 14.3545C28.6835 11.1074 26.1225 8.47474 22.9639 8.47461Z" fill="black"/>
</svg>
