<svg width="48" height="48" viewBox="0 0 48 48" fill="none" xmlns="http://www.w3.org/2000/svg">
<path d="M27 12.4051C27 10.7796 17 14.4369 12 16.4688C12 17.8234 13 20.7357 17 21.5485C22 22.5644 27 21.5485 30 21.5485C32.4 21.5485 35 18.162 36 16.4688C32.3333 16.8075 26 16.8752 30 14.4369C35 11.3891 27 16.4688 22 16.4688C17 16.4688 27 14.4369 27 12.4051Z" fill="#AFBDD7"/>
<ellipse cx="24.8" cy="45" rx="18.4" ry="3" fill="#031763"/>
<path d="M24 0C37.2548 0 48 6.49187 48 14.5C48 18.4997 45.3193 22.1208 40.9844 24.7441L26.4297 43.9492C25.6415 44.9889 24.0846 45.0077 23.2715 43.9873L8.66113 25.6514C3.36926 22.9916 0 18.984 0 14.5C0 6.49187 10.7452 0 24 0ZM24 7.34961C17.4636 7.34961 12.165 10.5509 12.165 14.5C12.165 18.4491 17.4636 21.6504 24 21.6504C30.5364 21.6504 35.835 18.4491 35.835 14.5C35.835 10.5509 30.5364 7.34961 24 7.34961Z" fill="#5B90E0"/>
</svg>
